<svg version="1.1" id="Layer_1" xmlns="http://www.w3.org/2000/svg" xmlns:xlink="http://www.w3.org/1999/xlink" x="0px" y="0px"
	 width="100%" viewBox="0 0 543 480" enable-background="new 0 0 543 480" xml:space="preserve">
<path fill="#000000" opacity="1.000000" stroke="none" 
	d="
M316.000000,481.000000 
	C210.692261,481.000000 105.884537,481.000000 1.038401,481.000000 
	C1.038401,321.064667 1.038401,161.129349 1.038401,1.097009 
	C181.891083,1.097009 362.782257,1.097009 543.836670,1.097009 
	C543.836670,160.999863 543.836670,320.999908 543.836670,481.000000 
	C468.129303,481.000000 392.314667,481.000000 316.000000,481.000000 
M242.066055,425.620758 
	C249.037460,411.323944 256.300140,397.159241 262.866394,382.678741 
	C266.554810,374.544708 269.092285,365.888763 272.298645,357.053558 
	C273.065979,358.340973 273.624451,358.993530 273.880341,359.748627 
	C281.078461,380.987885 288.705292,402.065826 300.188843,421.449921 
	C308.320618,435.176331 317.694672,447.857697 330.367981,458.014435 
	C353.716705,476.726654 380.800629,475.836304 405.171783,462.807587 
	C422.597229,453.492004 437.370087,440.560638 450.771942,425.935150 
	C459.725159,416.164612 467.427521,405.704407 472.665680,393.609222 
	C479.967346,376.749237 480.657043,359.550049 471.881866,343.082550 
	C462.639252,325.737762 447.064728,315.014404 429.684174,307.171661 
	C418.138977,301.962067 405.904480,298.280212 396.771576,294.936981 
	C408.213745,293.811493 422.563873,293.110382 436.666290,290.858246 
	C462.438354,286.742493 484.524811,275.436340 501.534454,255.035019 
	C510.988892,243.695419 517.708923,230.982559 520.871216,216.659012 
	C522.941223,207.283157 523.829895,197.634888 525.027832,188.081055 
	C526.473328,176.552292 527.843323,165.009399 528.950806,153.444351 
	C529.860840,143.940674 530.252441,134.388565 531.029236,124.870598 
	C532.285583,109.477867 534.163147,94.117104 534.836365,78.701698 
	C535.333801,67.311943 535.442139,55.690605 533.762634,44.465908 
	C530.458984,22.387369 517.813416,9.470786 495.234558,9.124343 
	C480.296204,8.895132 466.439911,14.168864 453.166260,20.478544 
	C428.943115,31.993097 408.205353,48.607204 389.438660,67.396996 
	C374.197296,82.657082 359.981323,99.015312 346.149200,115.586479 
	C334.139648,129.974197 322.631897,144.886261 312.117462,160.390610 
	C298.022949,181.174118 285.099030,202.751450 271.779327,223.819077 
	C270.790649,222.017731 269.431671,219.434601 267.975677,216.907379 
	C261.402100,205.497253 255.565796,193.568665 248.051682,182.813477 
	C232.094254,159.973053 215.795334,137.325027 198.600586,115.410866 
	C186.422134,99.889847 172.775162,85.487877 159.325119,71.012497 
	C153.063522,64.273544 145.669998,58.593281 138.865982,52.349846 
	C126.407265,40.917622 112.548607,31.389124 97.715065,23.453409 
	C84.795128,16.541447 71.172142,11.511012 56.306087,9.748937 
	C46.462585,8.582188 37.310020,9.512156 29.079798,14.562026 
	C15.519751,22.882147 11.110425,36.682758 10.202791,51.422085 
	C9.513025,62.623398 10.458071,73.948578 11.042994,85.199547 
	C11.847111,100.666656 12.988197,116.116386 14.006209,131.572159 
	C14.320100,136.337738 14.568975,141.113297 15.082026,145.858932 
	C16.313751,157.252197 17.668116,168.632370 19.003635,180.014236 
	C20.338333,191.389038 20.613052,203.025238 23.290123,214.077515 
	C29.197208,238.464859 41.855492,258.705994 63.116951,273.069672 
	C84.081795,287.233002 107.547646,292.750793 132.336624,293.954620 
	C138.583771,294.257996 144.858170,294.000031 151.120056,294.000031 
	C148.457977,295.355621 145.729401,296.190765 142.992554,296.997864 
	C120.406761,303.658264 98.919533,312.414856 82.431145,330.122864 
	C68.742004,344.824524 63.883709,362.240845 68.447433,381.805786 
	C73.347908,402.814423 86.551147,418.909363 101.367516,433.635773 
	C108.783905,441.007080 117.067123,447.613647 125.503105,453.826294 
	C137.768219,462.858887 151.262695,469.900696 166.556488,471.850128 
	C186.573532,474.401642 204.481934,468.471100 218.786560,454.378235 
	C227.373032,445.918854 234.277634,435.752289 242.066055,425.620758 
z"/>
<path fill="#1185FE" opacity="1.000000" stroke="none" 
	d="
M242.002090,425.986877 
	C234.277634,435.752289 227.373032,445.918854 218.786560,454.378235 
	C204.481934,468.471100 186.573532,474.401642 166.556488,471.850128 
	C151.262695,469.900696 137.768219,462.858887 125.503105,453.826294 
	C117.067123,447.613647 108.783905,441.007080 101.367516,433.635773 
	C86.551147,418.909363 73.347908,402.814423 68.447433,381.805786 
	C63.883709,362.240845 68.742004,344.824524 82.431145,330.122864 
	C98.919533,312.414856 120.406761,303.658264 142.992554,296.997864 
	C145.729401,296.190765 148.457977,295.355621 151.120056,294.000031 
	C144.858170,294.000031 138.583771,294.257996 132.336624,293.954620 
	C107.547646,292.750793 84.081795,287.233002 63.116951,273.069672 
	C41.855492,258.705994 29.197208,238.464859 23.290123,214.077515 
	C20.613052,203.025238 20.338333,191.389038 19.003635,180.014236 
	C17.668116,168.632370 16.313751,157.252197 15.082026,145.858932 
	C14.568975,141.113297 14.320100,136.337738 14.006209,131.572159 
	C12.988197,116.116386 11.847111,100.666656 11.042994,85.199547 
	C10.458071,73.948578 9.513025,62.623398 10.202791,51.422085 
	C11.110425,36.682758 15.519751,22.882147 29.079798,14.562026 
	C37.310020,9.512156 46.462585,8.582188 56.306087,9.748937 
	C71.172142,11.511012 84.795128,16.541447 97.715065,23.453409 
	C112.548607,31.389124 126.407265,40.917622 138.865982,52.349846 
	C145.669998,58.593281 153.063522,64.273544 159.325119,71.012497 
	C172.775162,85.487877 186.422134,99.889847 198.600586,115.410866 
	C215.795334,137.325027 232.094254,159.973053 248.051682,182.813477 
	C255.565796,193.568665 261.402100,205.497253 267.975677,216.907379 
	C269.431671,219.434601 270.790649,222.017731 271.779327,223.819077 
	C285.099030,202.751450 298.022949,181.174118 312.117462,160.390610 
	C322.631897,144.886261 334.139648,129.974197 346.149200,115.586479 
	C359.981323,99.015312 374.197296,82.657082 389.438660,67.396996 
	C408.205353,48.607204 428.943115,31.993097 453.166260,20.478544 
	C466.439911,14.168864 480.296204,8.895132 495.234558,9.124343 
	C517.813416,9.470786 530.458984,22.387369 533.762634,44.465908 
	C535.442139,55.690605 535.333801,67.311943 534.836365,78.701698 
	C534.163147,94.117104 532.285583,109.477867 531.029236,124.870598 
	C530.252441,134.388565 529.860840,143.940674 528.950806,153.444351 
	C527.843323,165.009399 526.473328,176.552292 525.027832,188.081055 
	C523.829895,197.634888 522.941223,207.283157 520.871216,216.659012 
	C517.708923,230.982559 510.988892,243.695419 501.534454,255.035019 
	C484.524811,275.436340 462.438354,286.742493 436.666290,290.858246 
	C422.563873,293.110382 408.213745,293.811493 396.771576,294.936981 
	C405.904480,298.280212 418.138977,301.962067 429.684174,307.171661 
	C447.064728,315.014404 462.639252,325.737762 471.881866,343.082550 
	C480.657043,359.550049 479.967346,376.749237 472.665680,393.609222 
	C467.427521,405.704407 459.725159,416.164612 450.771942,425.935150 
	C437.370087,440.560638 422.597229,453.492004 405.171783,462.807587 
	C380.800629,475.836304 353.716705,476.726654 330.367981,458.014435 
	C317.694672,447.857697 308.320618,435.176331 300.188843,421.449921 
	C288.705292,402.065826 281.078461,380.987885 273.880341,359.748627 
	C273.624451,358.993530 273.065979,358.340973 272.298645,357.053558 
	C269.092285,365.888763 266.554810,374.544708 262.866394,382.678741 
	C256.300140,397.159241 249.037460,411.323944 242.002090,425.986877 
z"/>
</svg>